<?xml version="1.0" encoding="utf-8"?>
<!-- Generator: Adobe Illustrator 25.2.1, SVG Export Plug-In . SVG Version: 6.00 Build 0)  -->
<svg version="1.1" id="Слой_1" xmlns="http://www.w3.org/2000/svg" xmlns:xlink="http://www.w3.org/1999/xlink" x="0px" y="0px"
	 viewBox="0 0 1920 1080" style="enable-background:new 0 0 1920 1080;" xml:space="preserve">
<style type="text/css">
	.st0{fill:#383838;}
	.st1{fill:#454545;}
	.st2{fill:#818181;}
	.st3{fill:#B7B7B7;}
</style>
<polygon class="st0" points="963.5,7.4 1130.7,352.4 1515.1,411.1 1239.3,675.2 1304.4,1054.2 963.5,879.4 623.7,1054.2 
	690.6,679.9 412,412.3 795,359.5 "/>
<polygon class="st1" points="340.5,431.3 443.7,644.3 681.1,680.5 510.8,843.5 551,1077.6 340.5,969.6 130.7,1077.6 172,846.4 
	0,681.2 236.5,648.6 "/>
<polygon class="st1" points="1581.4,423.7 1684.6,636.7 1921.9,672.9 1751.7,836 1791.8,1070 1581.4,962 1371.6,1070 1412.9,838.9 
	1240.9,673.7 1477.4,641.1 "/>
<polygon class="st2" points="963.5,150.2 1089.6,410.5 1379.6,454.7 1171.6,653.9 1220.6,939.8 963.5,807.9 707.2,939.8 
	757.7,657.4 547.5,455.6 836.4,415.8 "/>
<polygon class="st3" points="338.5,519.7 416.4,680.3 595.4,707.7 467,830.6 497.2,1007.1 338.5,925.7 180.3,1007.1 211.4,832.8 
	81.7,708.2 260.1,683.6 "/>
<polygon class="st3" points="1583.4,511.3 1661.2,672 1840.3,699.3 1711.8,822.2 1742.1,998.8 1583.4,917.3 1425.1,998.8 
	1456.3,824.4 1326.5,699.8 1504.9,675.2 "/>
</svg>
